<svg width="161" height="192" viewBox="0 0 161 192" fill="none" xmlns="http://www.w3.org/2000/svg">
<path d="M0 192C29 138.5 13.8527 32.5 0.352661 0H4.35266C48.3527 80.8 22.686 161.667 4.35266 192H0Z" fill="#0071BC"/>
<path d="M4 192C39.0609 116.4 18.9903 32.5 4.38162 0H8.71012C56.3236 80.8 28.5491 161.667 8.71012 192H4Z" fill="#F7931E"/>
<path d="M8 192C47 110.5 23.5 38 8.38162 0H12.7101C60.3236 80.8 32.5491 161.667 12.7101 192H8Z" fill="#7A5491"/>
<path d="M163 0H12C52 84.5 35.5 142 12 192H163V0Z" fill="#141717"/>
</svg>
